<?xml version="1.0" encoding="UTF-8" standalone="no"?>
<svg viewBox="0 0 42 42" width="42" height="42" xmlns="http://www.w3.org/2000/svg">
  <style>
      .pixart2svg {
        color-interpolation: linearRGB;
        shape-rendering: geometricPrecision;
      }
    @media (min-width: 84px) and (min-height: 84px) {
       .pixart2svg {
         shape-rendering: crispEdges;
       }
     }
    @media (width: 42px) and (height: 42px) {
       .pixart2svg {
         shape-rendering: crispEdges;
       }
     }
  </style>
  <g class="pixart2svg">
    <path stroke="#ecece7ff" d="M13 3h8M13 4h1M20 4h2M13 5h1M21 5h16M10 6h9M36 6h1M10 7h1M17 7h3M36 7h1M10 8h1M18 8h16M36 8h1M7 9h9M33 9h1M36 9h1M7 10h1M14 10h3M33 10h1M36 10h1M7 11h1M15 11h16M33 11h1M36 11h1M4 12h9M30 12h1M33 12h1M36 12h4M4 13h1M11 13h3M30 13h1M33 13h1M36 13h1M39 13h1M4 14h1M12 14h16M30 14h1M33 14h1M39 14h1M4 15h1M7 15h3M27 15h1M30 15h1M33 15h1M39 15h1M4 16h1M7 16h4M27 16h1M30 16h1M33 16h1M39 16h1M4 17h1M7 17h18M27 17h1M30 17h1M36 17h1M39 17h1M4 18h1M7 18h18M27 18h1M30 18h1M35 18h2M39 18h1M4 19h1M7 19h18M27 19h1M30 19h1M34 19h3M39 19h1M2 20h3M7 20h18M27 20h1M33 20h4M39 20h1M2 21h1M32 21h5M39 21h1M2 22h1M31 22h6M39 22h1M2 23h1M5 23h24M31 23h6M39 23h1M2 24h1M5 24h24M31 24h6M39 24h1M2 25h1M5 25h24M31 25h6M39 25h1M2 26h1M5 26h8M21 26h8M31 26h6M39 26h1M2 27h1M5 27h8M21 27h8M31 27h6M39 27h1M2 28h1M5 28h24M31 28h6M39 28h1M2 29h1M5 29h24M31 29h6M39 29h1M2 30h1M5 30h24M31 30h5M39 30h1M2 31h1M5 31h24M31 31h4M38 31h2M2 32h1M5 32h24M31 32h3M37 32h2M2 33h1M5 33h24M31 33h2M36 33h2M2 34h1M5 34h24M31 34h1M35 34h2M2 35h1M5 35h24M34 35h2M2 36h1M5 36h24M33 36h2M2 37h1M32 37h2M2 38h1M31 38h2M2 39h30"/>
    <path stroke="#16161dff" d="M14 4h6M14 5h7M19 6h17M11 7h6M20 7h16M11 8h7M34 8h2M16 9h17M34 9h2M8 10h6M17 10h16M34 10h2M8 11h7M31 11h2M34 11h2M13 12h17M31 12h2M34 12h2M5 13h6M14 13h16M31 13h2M34 13h2M37 13h2M5 14h7M28 14h2M31 14h2M34 14h5M5 15h2M10 15h17M28 15h2M31 15h2M34 15h5M5 16h2M11 16h16M28 16h2M31 16h2M34 16h5M5 17h2M25 17h2M28 17h2M31 17h5M37 17h2M5 18h2M25 18h2M28 18h2M31 18h4M37 18h2M5 19h2M25 19h2M28 19h2M31 19h3M37 19h2M5 20h2M25 20h2M28 20h5M37 20h2M3 21h29M37 21h2M3 22h28M37 22h2M3 23h2M29 23h2M37 23h2M3 24h2M29 24h2M37 24h2M3 25h2M29 25h2M37 25h2M3 26h2M13 26h8M29 26h2M37 26h2M3 27h2M13 27h8M29 27h2M37 27h2M3 28h2M29 28h2M37 28h2M3 29h2M29 29h2M37 29h2M3 30h2M29 30h2M36 30h3M3 31h2M29 31h2M35 31h3M3 32h2M29 32h2M34 32h3M3 33h2M29 33h2M33 33h3M3 34h2M29 34h2M32 34h3M3 35h2M29 35h5M3 36h2M29 36h4M3 37h29M3 38h28"/>
  </g>
</svg>
