<?xml version="1.0" encoding="UTF-8" standalone="no"?>
<svg viewBox="0 0 42 42" width="42" height="42" xmlns="http://www.w3.org/2000/svg">
  <style>
      .pixart2svg {
        color-interpolation: linearRGB;
        shape-rendering: geometricPrecision;
      }
    @media (min-width: 84px) and (min-height: 84px) {
       .pixart2svg {
         shape-rendering: crispEdges;
       }
     }
    @media (width: 42px) and (height: 42px) {
       .pixart2svg {
         shape-rendering: crispEdges;
       }
     }
  </style>
  <g class="pixart2svg">
    <path stroke="#ecece7ff" d="M6 2h23M6 3h1M18 3h2M22 3h2M28 3h2M6 4h1M18 4h2M22 4h2M29 4h2M6 5h1M9 5h17M30 5h2M6 6h1M9 6h17M31 6h2M6 7h1M9 7h2M23 7h3M28 7h1M32 7h2M6 8h1M9 8h2M23 8h2M28 8h2M33 8h2M6 9h1M9 9h2M13 9h8M23 9h2M28 9h3M34 9h2M6 10h1M9 10h2M13 10h3M18 10h3M23 10h3M35 10h1M6 11h1M9 11h2M13 11h3M18 11h3M23 11h3M35 11h1M6 12h1M9 12h2M13 12h3M18 12h3M23 12h2M32 12h1M35 12h1M6 13h1M9 13h2M13 13h8M23 13h2M32 13h1M35 13h1M6 14h1M9 14h2M13 14h3M18 14h3M23 14h10M35 14h1M6 15h1M9 15h2M13 15h3M18 15h3M23 15h10M35 15h1M6 16h1M9 16h2M13 16h8M23 16h2M32 16h1M35 16h1M6 17h1M9 17h2M23 17h2M32 17h1M35 17h1M6 18h1M9 18h2M23 18h10M35 18h1M6 19h1M9 19h24M35 19h1M6 20h1M9 20h24M35 20h1M6 21h1M9 21h24M35 21h1M6 22h1M9 22h4M29 22h4M35 22h1M6 23h1M9 23h4M29 23h4M35 23h1M6 24h1M9 24h24M35 24h1M6 25h1M9 25h24M35 25h1M6 26h1M9 26h24M35 26h1M6 27h1M9 27h4M15 27h2M29 27h4M35 27h1M6 28h1M9 28h4M15 28h2M29 28h4M35 28h1M6 29h1M9 29h24M35 29h1M6 30h1M9 30h24M35 30h1M6 31h1M9 31h24M35 31h1M6 32h1M9 32h4M15 32h2M29 32h4M35 32h1M6 33h1M9 33h4M15 33h2M29 33h4M35 33h1M6 34h1M9 34h24M35 34h1M6 35h1M9 35h24M35 35h1M6 36h1M9 36h24M35 36h1M6 37h1M35 37h1M6 38h1M35 38h1M6 39h30"/>
    <path stroke="#16161dff" d="M7 3h11M20 3h2M24 3h4M7 4h11M20 4h2M24 4h5M7 5h2M26 5h4M7 6h2M26 6h5M7 7h2M11 7h12M26 7h2M29 7h3M7 8h2M11 8h12M25 8h3M30 8h3M7 9h2M11 9h2M21 9h2M25 9h3M31 9h3M7 10h2M11 10h2M16 10h2M21 10h2M26 10h9M7 11h2M11 11h2M16 11h2M21 11h2M26 11h9M7 12h2M11 12h2M16 12h2M21 12h2M25 12h7M33 12h2M7 13h2M11 13h2M21 13h2M25 13h7M33 13h2M7 14h2M11 14h2M16 14h2M21 14h2M33 14h2M7 15h2M11 15h2M16 15h2M21 15h2M33 15h2M7 16h2M11 16h2M21 16h2M25 16h7M33 16h2M7 17h2M11 17h12M25 17h7M33 17h2M7 18h2M11 18h12M33 18h2M7 19h2M33 19h2M7 20h2M33 20h2M7 21h2M33 21h2M7 22h2M13 22h16M33 22h2M7 23h2M13 23h16M33 23h2M7 24h2M33 24h2M7 25h2M33 25h2M7 26h2M33 26h2M7 27h2M13 27h2M17 27h12M33 27h2M7 28h2M13 28h2M17 28h12M33 28h2M7 29h2M33 29h2M7 30h2M33 30h2M7 31h2M33 31h2M7 32h2M13 32h2M17 32h12M33 32h2M7 33h2M13 33h2M17 33h12M33 33h2M7 34h2M33 34h2M7 35h2M33 35h2M7 36h2M33 36h2M7 37h28M7 38h28"/>
  </g>
</svg>
