<?xml version="1.0" encoding="UTF-8" standalone="no"?>
<svg viewBox="0 0 42 42" width="42" height="42" xmlns="http://www.w3.org/2000/svg">
  <style>
      .pixart2svg {
        color-interpolation: linearRGB;
        shape-rendering: geometricPrecision;
      }
    @media (min-width: 84px) and (min-height: 84px) {
       .pixart2svg {
         shape-rendering: crispEdges;
       }
     }
    @media (width: 42px) and (height: 42px) {
       .pixart2svg {
         shape-rendering: crispEdges;
       }
     }
  </style>
  <g class="pixart2svg">
    <path stroke="#ecece7ff" d="M9 7h4M29 7h4M8 8h2M12 8h2M28 8h2M32 8h2M7 9h2M13 9h2M27 9h2M33 9h2M6 10h2M14 10h2M26 10h2M34 10h2M5 11h2M10 11h2M15 11h2M25 11h2M30 11h2M35 11h2M4 12h2M9 12h4M16 12h10M29 12h4M36 12h2M3 13h2M8 13h5M17 13h2M29 13h5M37 13h2M2 14h2M7 14h5M30 14h5M38 14h2M1 15h2M6 15h5M14 15h2M20 15h8M31 15h5M39 15h2M1 16h1M5 16h5M13 16h2M18 16h11M32 16h5M40 16h1M1 17h1M5 17h1M7 17h2M12 17h3M17 17h13M33 17h2M36 17h1M40 17h1M1 18h2M6 18h2M11 18h3M17 18h2M24 18h7M34 18h2M39 18h2M2 19h2M10 19h4M16 19h2M26 19h6M38 19h2M3 20h2M9 20h5M20 20h4M27 20h6M37 20h2M4 21h2M9 21h6M18 21h7M28 21h4M36 21h2M5 22h2M10 22h16M29 22h3M34 22h3M6 23h2M13 23h14M30 23h1M34 23h1M7 24h2M14 24h14M33 24h2M7 25h1M11 25h1M15 25h14M32 25h2M7 26h1M10 26h2M16 26h10M28 26h2M32 26h1M7 27h1M10 27h1M13 27h1M17 27h10M29 27h1M32 27h1M7 28h2M12 28h3M17 28h11M32 28h1M8 29h1M11 29h3M18 29h6M26 29h2M31 29h2M8 30h2M12 30h1M15 30h1M19 30h6M30 30h2M9 31h1M14 31h3M20 31h2M23 31h3M29 31h2M9 32h2M13 32h3M21 32h1M24 32h1M28 32h2M10 33h2M14 33h1M17 33h2M21 33h2M27 33h2M11 34h1M16 34h2M25 34h3M11 35h3M24 35h2M13 36h3M19 36h6M15 37h5"/>
    <path stroke="#16161dff" d="M10 8h2M30 8h2M9 9h4M29 9h4M8 10h6M28 10h6M7 11h3M12 11h3M27 11h3M32 11h3M6 12h3M13 12h3M26 12h3M33 12h3M5 13h3M13 13h4M19 13h10M34 13h3M4 14h3M12 14h18M35 14h3M3 15h3M11 15h3M16 15h4M28 15h3M36 15h3M2 16h3M10 16h3M15 16h3M29 16h3M37 16h3M2 17h3M6 17h1M9 17h3M15 17h2M30 17h3M35 17h1M37 17h3M3 18h3M8 18h3M14 18h3M19 18h5M31 18h3M36 18h3M4 19h6M14 19h2M18 19h8M32 19h6M5 20h4M14 20h6M24 20h3M33 20h4M6 21h3M15 21h3M25 21h3M32 21h4M7 22h3M26 22h3M32 22h2M8 23h5M27 23h3M31 23h3M9 24h5M28 24h5M8 25h3M12 25h3M29 25h3M8 26h2M12 26h4M26 26h2M30 26h2M8 27h2M11 27h2M14 27h3M27 27h2M30 27h2M9 28h3M15 28h2M28 28h4M9 29h2M14 29h4M24 29h2M28 29h3M10 30h2M13 30h2M16 30h3M25 30h5M10 31h4M17 31h3M22 31h1M26 31h3M11 32h2M16 32h5M22 32h2M25 32h3M12 33h2M15 33h2M19 33h2M23 33h4M12 34h4M18 34h7M14 35h10M16 36h3"/>
  </g>
</svg>
