<?xml version="1.0" encoding="UTF-8" standalone="no"?>
<svg viewBox="0 0 14 14" width="14" height="14" xmlns="http://www.w3.org/2000/svg">
  <style>
      .pixart2svg {
        color-interpolation: linearRGB;
        shape-rendering: geometricPrecision;
      }
    @media (min-width: 28px) and (min-height: 28px) {
       .pixart2svg {
         shape-rendering: crispEdges;
       }
     }
    @media (width: 14px) and (height: 14px) {
       .pixart2svg {
         shape-rendering: crispEdges;
       }
     }
  </style>
  <g class="pixart2svg">
    <path stroke="#16161dff" d="M5 2h6M5 3h1M10 3h1M3 4h3M10 4h1M3 5h1M5 5h1M10 5h1M3 6h1M5 6h1M10 6h1M3 7h1M5 7h1M10 7h1M3 8h1M5 8h1M10 8h1M3 9h1M5 9h6M3 10h1M8 10h1M3 11h6"/>
  </g>
</svg>
