<?xml version="1.0" encoding="UTF-8" standalone="no"?>
<svg viewBox="0 0 84 28" width="84" height="28" xmlns="http://www.w3.org/2000/svg">
  <style>
      .pixart2svg {
        color-interpolation: linearRGB;
        shape-rendering: geometricPrecision;
      }
    @media (min-width: 168px) and (min-height: 56px) {
       .pixart2svg {
         shape-rendering: crispEdges;
       }
     }
    @media (width: 84px) and (height: 28px) {
       .pixart2svg {
         shape-rendering: crispEdges;
       }
     }
  </style>
  <g class="pixart2svg">
    <path stroke="#ecece7ff" d="M19 4h4M18 5h2M22 5h2M17 6h2M23 6h1M16 7h2M23 7h1M15 8h2M22 8h2M14 9h2M21 9h2M13 10h2M20 10h2M12 11h2M19 11h53M11 12h2M71 12h2M11 13h1M72 13h1M11 14h1M72 14h1M11 15h2M71 15h2M12 16h2M19 16h53M13 17h2M20 17h2M14 18h2M21 18h2M15 19h2M22 19h2M16 20h2M23 20h1M17 21h2M23 21h1M18 22h2M22 22h2M19 23h4"/>
    <path stroke="#16161dff" d="M20 5h2M19 6h4M18 7h5M17 8h5M16 9h5M15 10h5M14 11h5M13 12h58M12 13h60M12 14h60M13 15h58M14 16h5M15 17h5M16 18h5M17 19h5M18 20h5M19 21h4M20 22h2"/>
  </g>
</svg>
