<?xml version="1.0" encoding="UTF-8" standalone="no"?>
<svg viewBox="0 0 84 28" width="84" height="28" xmlns="http://www.w3.org/2000/svg">
  <style>
      .pixart2svg {
        color-interpolation: linearRGB;
        shape-rendering: geometricPrecision;
      }
    @media (min-width: 168px) and (min-height: 56px) {
       .pixart2svg {
         shape-rendering: crispEdges;
       }
     }
    @media (width: 84px) and (height: 28px) {
       .pixart2svg {
         shape-rendering: crispEdges;
       }
     }
  </style>
  <g class="pixart2svg">
    <path stroke="#ecece7ff" d="M12 4h53M11 5h2M64 5h2M11 6h1M65 6h1M11 7h1M65 7h1M11 8h2M65 8h1M12 9h49M65 9h1M60 10h1M65 10h1M54 11h4M60 11h1M65 11h1M68 11h4M53 12h2M57 12h2M60 12h1M65 12h1M67 12h2M71 12h2M53 13h1M58 13h3M65 13h3M72 13h1M53 14h1M59 14h2M65 14h2M72 14h1M53 15h2M60 15h1M65 15h1M71 15h2M54 16h2M70 16h2M55 17h2M69 17h2M56 18h2M68 18h2M57 19h2M67 19h2M58 20h2M66 20h2M59 21h2M65 21h2M60 22h2M64 22h2M61 23h4"/>
    <path stroke="#16161dff" d="M13 5h51M12 6h53M12 7h53M13 8h52M61 9h4M61 10h4M61 11h4M55 12h2M61 12h4M69 12h2M54 13h4M61 13h4M68 13h4M54 14h5M61 14h4M67 14h5M55 15h5M61 15h4M66 15h5M56 16h14M57 17h12M58 18h10M59 19h8M60 20h6M61 21h4M62 22h2"/>
  </g>
</svg>
