<?xml version="1.0" encoding="UTF-8" standalone="no"?>
<svg viewBox="0 0 84 28" width="84" height="28" xmlns="http://www.w3.org/2000/svg">
  <style>
      .pixart2svg {
        color-interpolation: linearRGB;
        shape-rendering: geometricPrecision;
      }
    @media (min-width: 168px) and (min-height: 56px) {
       .pixart2svg {
         shape-rendering: crispEdges;
       }
     }
    @media (width: 84px) and (height: 28px) {
       .pixart2svg {
         shape-rendering: crispEdges;
       }
     }
  </style>
  <g class="pixart2svg">
    <path stroke="#ecece7ff" d="M19 4h53M18 5h2M71 5h2M18 6h1M72 6h1M18 7h1M72 7h1M18 8h1M71 8h2M18 9h1M23 9h49M18 10h1M23 10h1M12 11h4M18 11h1M23 11h1M26 11h4M11 12h2M15 12h2M18 12h1M23 12h1M25 12h2M29 12h2M11 13h1M16 13h3M23 13h3M30 13h1M11 14h1M17 14h2M23 14h2M30 14h1M11 15h2M18 15h1M23 15h1M29 15h2M12 16h2M28 16h2M13 17h2M27 17h2M14 18h2M26 18h2M15 19h2M25 19h2M16 20h2M24 20h2M17 21h2M23 21h2M18 22h2M22 22h2M19 23h4"/>
    <path stroke="#16161dff" d="M20 5h51M19 6h53M19 7h53M19 8h52M19 9h4M19 10h4M19 11h4M13 12h2M19 12h4M27 12h2M12 13h4M19 13h4M26 13h4M12 14h5M19 14h4M25 14h5M13 15h5M19 15h4M24 15h5M14 16h14M15 17h12M16 18h10M17 19h8M18 20h6M19 21h4M20 22h2"/>
  </g>
</svg>
