<?xml version="1.0" encoding="UTF-8" standalone="no"?>
<svg viewBox="0 0 84 28" width="84" height="28" xmlns="http://www.w3.org/2000/svg">
  <style>
      .pixart2svg {
        color-interpolation: linearRGB;
        shape-rendering: geometricPrecision;
      }
    @media (min-width: 168px) and (min-height: 56px) {
       .pixart2svg {
         shape-rendering: crispEdges;
       }
     }
    @media (width: 84px) and (height: 28px) {
       .pixart2svg {
         shape-rendering: crispEdges;
       }
     }
  </style>
  <g class="pixart2svg">
    <path stroke="#ecece7ff" d="M61 4h4M60 5h2M64 5h2M60 6h1M65 6h2M60 7h1M66 7h2M60 8h2M67 8h2M61 9h2M68 9h2M62 10h2M69 10h2M12 11h53M70 11h2M11 12h2M71 12h2M11 13h1M72 13h1M11 14h1M72 14h1M11 15h2M71 15h2M12 16h53M70 16h2M62 17h2M69 17h2M61 18h2M68 18h2M60 19h2M67 19h2M60 20h1M66 20h2M60 21h1M65 21h2M60 22h2M64 22h2M61 23h4"/>
    <path stroke="#16161dff" d="M62 5h2M61 6h4M61 7h5M62 8h5M63 9h5M64 10h5M65 11h5M13 12h58M12 13h60M12 14h60M13 15h58M65 16h5M64 17h5M63 18h5M62 19h5M61 20h5M61 21h4M62 22h2"/>
  </g>
</svg>
