<?xml version="1.0" encoding="UTF-8" standalone="no"?>
<svg viewBox="0 0 84 28" width="84" height="28" xmlns="http://www.w3.org/2000/svg">
  <style>
      .pixart2svg {
        color-interpolation: linearRGB;
        shape-rendering: geometricPrecision;
      }
    @media (min-width: 168px) and (min-height: 56px) {
       .pixart2svg {
         shape-rendering: crispEdges;
       }
     }
    @media (width: 84px) and (height: 28px) {
       .pixart2svg {
         shape-rendering: crispEdges;
       }
     }
  </style>
  <g class="pixart2svg">
    <path stroke="#ecece7ff" d="M19 4h4M18 5h2M22 5h2M17 6h2M23 6h2M16 7h2M24 7h2M15 8h2M25 8h2M14 9h2M26 9h2M13 10h2M27 10h2M12 11h2M28 11h2M11 12h2M18 12h1M23 12h1M29 12h2M11 13h1M17 13h2M23 13h2M30 13h1M11 14h1M16 14h3M23 14h3M30 14h1M11 15h2M15 15h2M18 15h1M23 15h1M25 15h2M29 15h2M12 16h4M18 16h1M23 16h1M26 16h4M18 17h1M23 17h1M18 18h1M23 18h49M18 19h1M71 19h2M18 20h1M72 20h1M18 21h1M72 21h1M18 22h2M71 22h2M19 23h53"/>
    <path stroke="#16161dff" d="M20 5h2M19 6h4M18 7h6M17 8h8M16 9h10M15 10h12M14 11h14M13 12h5M19 12h4M24 12h5M12 13h5M19 13h4M25 13h5M12 14h4M19 14h4M26 14h4M13 15h2M19 15h4M27 15h2M19 16h4M19 17h4M19 18h4M19 19h52M19 20h53M19 21h53M20 22h51"/>
  </g>
</svg>
