<?xml version="1.0" encoding="UTF-8" standalone="no"?>
<svg viewBox="0 0 84 28" width="84" height="28" xmlns="http://www.w3.org/2000/svg">
  <style>
      .pixart2svg {
        color-interpolation: linearRGB;
        shape-rendering: geometricPrecision;
      }
    @media (min-width: 168px) and (min-height: 56px) {
       .pixart2svg {
         shape-rendering: crispEdges;
       }
     }
    @media (width: 84px) and (height: 28px) {
       .pixart2svg {
         shape-rendering: crispEdges;
       }
     }
  </style>
  <g class="pixart2svg">
    <path stroke="#ecece7ff" d="M61 4h4M60 5h2M64 5h2M59 6h2M65 6h2M58 7h2M66 7h2M57 8h2M67 8h2M56 9h2M68 9h2M55 10h2M69 10h2M54 11h2M70 11h2M53 12h2M60 12h1M65 12h1M71 12h2M53 13h1M59 13h2M65 13h2M72 13h1M53 14h1M58 14h3M65 14h3M72 14h1M53 15h2M57 15h2M60 15h1M65 15h1M67 15h2M71 15h2M54 16h4M60 16h1M65 16h1M68 16h4M60 17h1M65 17h1M12 18h49M65 18h1M11 19h2M65 19h1M11 20h1M65 20h1M11 21h1M65 21h1M11 22h2M64 22h2M12 23h53"/>
    <path stroke="#16161dff" d="M62 5h2M61 6h4M60 7h6M59 8h8M58 9h10M57 10h12M56 11h14M55 12h5M61 12h4M66 12h5M54 13h5M61 13h4M67 13h5M54 14h4M61 14h4M68 14h4M55 15h2M61 15h4M69 15h2M61 16h4M61 17h4M61 18h4M13 19h52M12 20h53M12 21h53M13 22h51"/>
  </g>
</svg>
