<?xml version="1.0" encoding="UTF-8" standalone="no"?>
<svg viewBox="0 0 42 42" width="42" height="42" xmlns="http://www.w3.org/2000/svg">
  <style>
      .pixart2svg {
        color-interpolation: linearRGB;
        shape-rendering: geometricPrecision;
      }
    @media (min-width: 84px) and (min-height: 84px) {
       .pixart2svg {
         shape-rendering: crispEdges;
       }
     }
    @media (width: 42px) and (height: 42px) {
       .pixart2svg {
         shape-rendering: crispEdges;
       }
     }
  </style>
  <g class="pixart2svg">
    <path stroke="#ecece7ff" d="M13 6h4M12 7h2M16 7h2M11 8h2M17 8h1M10 9h2M17 9h1M9 10h2M16 10h2M8 11h2M15 11h2M7 12h2M14 12h14M6 13h2M27 13h3M6 14h1M29 14h3M6 15h1M31 15h2M6 16h2M32 16h2M7 17h2M14 17h12M33 17h1M8 18h2M15 18h2M25 18h3M33 18h2M9 19h2M16 19h2M27 19h2M34 19h1M10 20h2M17 20h1M28 20h2M34 20h2M11 21h2M17 21h1M29 21h1M35 21h1M12 22h2M16 22h2M29 22h2M35 22h1M13 23h4M30 23h1M35 23h1M30 24h1M35 24h1M29 25h2M35 25h1M29 26h1M35 26h1M28 27h2M34 27h2M27 28h2M34 28h1M25 29h3M33 29h2M17 30h9M33 30h1M16 31h2M32 31h2M16 32h1M31 32h2M16 33h1M29 33h3M16 34h2M27 34h3M17 35h11"/>
    <path stroke="#16161dff" d="M14 7h2M13 8h4M12 9h5M11 10h5M10 11h5M9 12h5M8 13h19M7 14h22M7 15h24M8 16h24M9 17h5M26 17h7M10 18h5M28 18h5M11 19h5M29 19h5M12 20h5M30 20h4M13 21h4M30 21h5M14 22h2M31 22h4M31 23h4M31 24h4M31 25h4M30 26h5M30 27h4M29 28h5M28 29h5M26 30h7M18 31h14M17 32h14M17 33h12M18 34h9"/>
  </g>
</svg>
