<?xml version="1.0" encoding="UTF-8" standalone="no"?>
<svg viewBox="0 0 42 42" width="42" height="42" xmlns="http://www.w3.org/2000/svg">
  <style>
      .pixart2svg {
        color-interpolation: linearRGB;
        shape-rendering: geometricPrecision;
      }
    @media (min-width: 84px) and (min-height: 84px) {
       .pixart2svg {
         shape-rendering: crispEdges;
       }
     }
    @media (width: 42px) and (height: 42px) {
       .pixart2svg {
         shape-rendering: crispEdges;
       }
     }
  </style>
  <g class="pixart2svg">
    <path stroke="#ecece7ff" d="M15 12h12M12 13h4M26 13h4M10 14h3M29 14h3M8 15h3M31 15h3M7 16h2M33 16h2M6 17h2M17 17h8M34 17h2M6 18h1M14 18h4M24 18h4M35 18h1M5 19h2M12 19h3M27 19h3M35 19h2M5 20h1M11 20h2M17 20h4M29 20h2M36 20h1M5 21h1M10 21h2M16 21h2M20 21h2M30 21h2M36 21h1M5 22h1M11 22h2M16 22h1M21 22h2M29 22h2M36 22h1M5 23h2M12 23h3M16 23h1M22 23h2M27 23h3M35 23h2M6 24h1M14 24h4M23 24h5M35 24h1M6 25h2M17 25h2M24 25h1M34 25h2M7 26h2M25 26h1M33 26h2M8 27h3M26 27h1M31 27h3M10 28h3M26 28h1M29 28h3M12 29h4M25 29h5M15 30h4M24 30h2M16 31h2M23 31h2M16 32h1M22 32h2M16 33h1M21 33h2M16 34h2M20 34h2M17 35h4"/>
    <path stroke="#16161dff" d="M16 13h10M13 14h16M11 15h20M9 16h24M8 17h9M25 17h9M7 18h7M28 18h7M7 19h5M30 19h5M6 20h5M31 20h5M6 21h4M18 21h2M32 21h4M6 22h5M17 22h4M31 22h5M7 23h5M17 23h5M30 23h5M7 24h7M18 24h5M28 24h7M8 25h9M19 25h5M25 25h9M9 26h16M26 26h7M11 27h15M27 27h4M13 28h13M27 28h2M16 29h9M19 30h5M18 31h5M17 32h5M17 33h4M18 34h2"/>
  </g>
</svg>
