<?xml version="1.0" encoding="UTF-8" standalone="no"?>
<svg viewBox="0 0 42 42" width="42" height="42" xmlns="http://www.w3.org/2000/svg">
  <style>
      .pixart2svg {
        color-interpolation: linearRGB;
        shape-rendering: geometricPrecision;
      }
    @media (min-width: 84px) and (min-height: 84px) {
       .pixart2svg {
         shape-rendering: crispEdges;
       }
     }
    @media (width: 42px) and (height: 42px) {
       .pixart2svg {
         shape-rendering: crispEdges;
       }
     }
  </style>
  <g class="pixart2svg">
    <path stroke="#ecece7ff" d="M29 2h5M25 3h5M33 3h1M22 4h4M33 4h1M19 5h4M31 5h3M15 6h5M27 6h4M33 6h1M13 7h3M24 7h7M33 7h1M13 8h1M21 8h4M26 8h1M33 8h1M13 9h1M17 9h5M26 9h1M33 9h1M13 10h5M26 10h5M33 10h1M13 11h1M16 11h1M30 11h1M33 11h1M9 12h5M16 12h1M30 12h1M33 12h1M9 13h1M16 13h1M30 13h1M33 13h1M9 14h1M16 14h1M30 14h1M33 14h1M9 15h5M16 15h1M30 15h1M33 15h1M13 16h1M16 16h1M30 16h1M33 16h1M13 17h1M16 17h1M23 17h8M33 17h1M13 18h1M16 18h1M23 18h1M30 18h1M33 18h1M13 19h1M16 19h1M21 19h3M30 19h8M13 20h1M16 20h1M21 20h1M24 20h6M32 20h1M37 20h1M13 21h1M16 21h1M21 21h1M24 21h1M27 21h3M32 21h1M37 21h1M6 22h8M16 22h1M21 22h1M24 22h1M27 22h1M32 22h6M6 23h1M13 23h1M16 23h1M21 23h1M24 23h4M32 23h1M4 24h3M9 24h5M16 24h6M24 24h2M28 24h2M32 24h1M4 25h1M7 25h3M20 25h2M24 25h2M28 25h2M32 25h1M4 26h1M7 26h1M9 26h1M20 26h2M26 26h4M32 26h1M4 27h1M7 27h1M9 27h13M26 27h1M29 27h1M32 27h1M4 28h1M7 28h4M15 28h1M21 28h1M24 28h3M29 28h1M32 28h1M4 29h1M7 29h2M11 29h2M15 29h1M21 29h1M24 29h1M29 29h1M32 29h1M4 30h1M7 30h2M11 30h2M15 30h1M21 30h1M24 30h1M29 30h1M32 30h1M4 31h1M9 31h4M15 31h1M21 31h1M24 31h6M32 31h1M4 32h1M9 32h1M12 32h1M15 32h1M21 32h3M30 32h3M4 33h1M7 33h3M12 33h1M15 33h1M23 33h1M30 33h1M4 34h1M7 34h1M12 34h1M15 34h1M23 34h8M4 35h1M7 35h1M12 35h1M15 35h1M4 36h1M7 36h6M15 36h1M4 37h3M13 37h3M6 38h1M13 38h1M6 39h8"/>
    <path stroke="#16161dff" d="M30 3h3M26 4h7M23 5h8M20 6h7M31 6h2M16 7h8M31 7h2M14 8h7M27 8h6M14 9h3M27 9h6M31 10h2M14 11h2M31 11h2M14 12h2M31 12h2M10 13h6M31 13h2M10 14h6M31 14h2M14 15h2M31 15h2M14 16h2M31 16h2M14 17h2M31 17h2M14 18h2M24 18h6M31 18h2M14 19h2M24 19h6M14 20h2M22 20h2M30 20h2M33 20h4M14 21h2M22 21h2M30 21h2M33 21h4M14 22h2M22 22h2M28 22h4M7 23h6M14 23h2M22 23h2M28 23h4M7 24h2M14 24h2M22 24h2M26 24h2M30 24h2M5 25h2M10 25h10M22 25h2M26 25h2M30 25h2M5 26h2M10 26h10M22 26h4M30 26h2M5 27h2M22 27h4M30 27h2M5 28h2M11 28h4M22 28h2M30 28h2M5 29h2M9 29h2M13 29h2M22 29h2M30 29h2M5 30h2M9 30h2M13 30h2M22 30h2M30 30h2M5 31h4M13 31h2M22 31h2M30 31h2M5 32h4M13 32h2M24 32h6M5 33h2M13 33h2M24 33h6M5 34h2M13 34h2M5 35h2M13 35h2M5 36h2M13 36h2M7 37h6M7 38h6"/>
  </g>
</svg>
